PathFileType	4	(X/Y/Z)	Patient4_TMGait_0pt4_03_left_04.trc.trc
DataRate	CameraRate	NumFrames	NumMarkers	Units	OrigDataRate	OrigDataStartFrame	OrigNumFrames
77.348066298343	77.348066298343	4	33	mm	77.348066298343	71	       141
Frame#	Time	Sacral			L.Shoulder			Chest			R.Shoulder			Neck			R.ASIS			L.ASIS			R.Thigh.Superior			R.Thigh.Lateral			R.Thigh.Inferior			R.Patella			L.Thigh.Superior			L.Thigh.Lateral			L.Thigh.Inferior			L.Patella			L.Shank.Superior			L.Shank.Lateral			L.Shank.Inferior			R.Shank.Superior			R.Shank.Lateral			R.Shank.Inferior			R.Heel			R.Midfoot.Superior			R.Midfoot.Lateral			R.Toe			L.Heel			L.Midfoot.Lateral			L.Midfoot.Superior			L.Toe			L.Elbow			L.Wrist			R.Elbow			R.Wrist			
		X1	Y1	Z1	X2	Y2	Z2	X3	Y3	Z3	X4	Y4	Z4	X5	Y5	Z5	X6	Y6	Z6	X7	Y7	Z7	X8	Y8	Z8	X9	Y9	Z9	X10	Y10	Z10	X11	Y11	Z11	X12	Y12	Z12	X13	Y13	Z13	X14	Y14	Z14	X15	Y15	Z15	X16	Y16	Z16	X17	Y17	Z17	X18	Y18	Z18	X19	Y19	Z19	X20	Y20	Z20	X21	Y21	Z21	X22	Y22	Z22	X23	Y23	Z23	X24	Y24	Z24	X25	Y25	Z25	X26	Y26	Z26	X27	Y27	Z27	X28	Y28	Z28	X29	Y29	Z29	X30	Y30	Z30	X31	Y31	Z31	X32	Y32	Z32	X33	Y33	Z33	

71	5.715000000000	791.464714418743	1010.262195631010	435.617071148474	1002.917619416848	1433.116212158604	264.610692667483	1083.340385772160	1365.053313145202	437.887079919258	980.843425386408	1440.508264318063	600.140175469157	965.617987020945	1496.687161721021	419.282164886782	1004.863275427337	946.945134321066	581.055889659530	1021.536704907407	960.093662905369	305.657605879484	1065.376221056690	757.930635247130	561.650734227871	1006.537126665421	644.850378864401	633.054909820779	1092.360494409650	597.940004351998	555.261268659674	1117.993882525683	522.686552136238	572.339480716127	1035.300936260667	735.570369738511	340.534777682549	935.194640720210	634.200628959476	263.984218082006	995.702090622198	545.621319711667	334.830534476518	983.202345059005	478.800381123724	342.259159672646	953.299912504777	409.881953785808	330.585428836310	857.644644982214	303.156875653527	275.365164586242	894.351471145488	188.233458293104	347.659860951765	1109.125295206784	437.207824141889	586.753250446877	1065.370394664470	321.898460643638	653.389623003975	1141.437440535251	240.092790298358	603.808712169057	1064.247827605818	47.565311784503	579.660485869487	1222.823970969829	129.927068323886	617.871953497850	1148.960617551589	50.654850736575	652.574047491409	1349.273126824420	100.273851706698	642.706939979306	758.224047127662	38.425501570051	389.375932857746	828.269808021244	35.069257317953	305.334546381923	912.853984013425	95.583914144493	331.311760327040	1039.784419105805	43.635944081237	294.869623766346	1048.902324174629	1108.540952483671	102.378758608342	1299.249084287100	1039.103774795766	98.871121989019	837.193562297612	1125.234264501034	706.952442099249	811.400307255449	865.106479129347	719.164154431269	
72	5.727928571429	793.202289522339	1009.162116735613	438.389913396989	1003.192683170631	1432.235670832618	266.683553618909	1084.169916957529	1364.510111180819	439.807855724340	981.814491142173	1439.766766838001	602.277650551620	966.064238094525	1495.834556542627	421.352703270365	1006.892584342905	945.866656784611	583.265962522020	1022.956238744464	959.253689731857	307.854896502720	1066.383525003613	755.922533682092	563.700985682692	1005.505128392353	642.482081097768	633.421388521269	1091.467777129462	595.882964265642	556.032291207638	1115.580663566863	520.364339859008	572.335865473398	1035.677592127000	734.293063426301	342.152547800264	934.598492563426	633.540511436517	265.749206695723	994.905065925639	544.401229710929	335.961866048175	982.024563850568	477.454188454014	343.234127573276	951.320931182673	408.887326868868	331.545096637204	854.453359396347	303.283216398258	276.127410893965	890.074804997108	187.694643339139	347.866264737533	1106.274470684756	434.174388075850	586.232540392014	1060.877025554524	318.862459858196	651.439872603595	1136.440949221812	236.866392376967	601.883316847139	1057.415028454263	46.504493124427	575.956451988928	1216.725151779056	125.679526774119	615.365264897087	1141.482940790870	48.115361954392	649.497813014748	1342.430863879730	93.842875916927	640.956326845601	753.024048603443	38.397908612670	389.338390070502	823.071376496854	35.009243302703	305.335644299937	907.706256234655	95.465889097546	331.322548401307	1034.630640657091	43.275521960600	294.827338700776	1050.391418339120	1107.354794112079	105.321061690315	1300.979800827761	1038.839238051785	102.085396265047	839.704926453594	1123.521671360691	708.610207596691	816.969065564538	862.913861321623	719.168654178323	
73	5.740857142857	795.074585312494	1007.927517738561	441.425536046865	1003.300846323427	1431.281816373557	268.915656351902	1084.975186254091	1363.971850444429	441.854887100058	982.781857794330	1438.967316945350	604.597535036162	966.429218875212	1494.921381196522	423.600110863129	1009.240917513104	944.752285508997	585.569073882094	1024.442939413357	958.384063846639	310.134577893014	1068.129488955458	754.128404223698	565.713302541379	1005.103069436174	640.191176222584	633.655028695362	1091.364103000908	594.012262544548	556.823606831497	1113.793817785596	517.869450483029	572.161008924917	1036.229727514749	732.978038341104	343.650383061889	934.040955435366	632.839307325459	267.616752116189	994.314134388577	543.124971749151	337.012645638645	981.123112123074	476.001785722679	344.150205534945	949.515549015401	407.828452588632	332.492448820331	851.298920999678	303.443613536547	276.940096451792	885.831140177910	187.130381028307	348.038410423010	1103.667086707404	430.828336720354	585.476719620610	1056.030051116499	315.830856121993	649.415963845502	1130.387706468903	233.145927581095	599.754267806521	1048.146691748329	45.606965014337	572.528402674276	1208.734752748703	120.719658656343	612.585883044805	1131.718984005546	45.515216532486	646.569194200644	1333.596947470497	86.009397859349	638.810263933888	747.808246941373	38.342742449638	389.287300636269	817.871462335738	34.918125221034	305.337254729988	902.553729255637	95.343375322183	331.308955316847	1029.486110476117	42.901603432652	294.768791926814	1051.499407592955	1105.954052441362	108.521183662908	1302.194105706930	1037.688407304123	105.471994609127	842.794964755051	1121.511843803126	710.669929098884	824.044410869088	860.384532977494	719.589212775389	
74	5.753785714286	797.062363976372	1006.612984675883	444.680002609192	1003.269722276634	1430.294846118842	271.307729189948	1085.769619379020	1363.467138446690	444.031847435921	983.756206117021	1438.138757807871	607.100978897598	966.739110691038	1493.990018446454	426.027210327424	1011.872591837932	943.652621434164	587.949418391651	1025.995344781951	957.516748232736	312.489127374209	1070.443881776908	752.480886947015	567.706697999149	1005.210415726439	638.043186910258	633.860733803880	1091.833407261768	592.294716119263	557.640609602194	1112.463876431764	515.279733515007	571.846763717950	1036.966552885878	731.662781988884	345.015250296125	933.528589065219	632.125275244369	269.584543374123	993.940460467431	541.824486713307	337.989538529739	980.524962903637	474.463175383698	345.008768908848	947.897570091812	406.729470691383	333.434438596343	848.193432696557	303.671660555186	277.814619041496	881.631314839990	186.569904975265	348.186687535417	1101.317832254726	427.354316687925	584.595946014793	1051.162914240349	312.894161855072	647.509146940302	1123.803832149431	229.180670366095	597.571064516383	1037.443216304810	44.814030661274	569.572596229194	1199.647911902530	115.492679275329	609.688967464159	1120.696069956846	43.034869236693	643.957580353382	1323.672722681620	77.594426001807	636.383433549324	742.577937976965	38.300416804620	389.217953266659	812.675388033949	34.813121180458	305.338961051215	897.414772282429	95.225401769749	331.265540920120	1024.358471418766	42.516395945344	294.691407233151	1052.196740908746	1104.365677089170	111.974930036748	1302.856151593606	1035.659987560452	108.997727609681	846.464775493861	1119.247365612226	713.116516557137	832.551772926924	857.607248046725	720.463234378502	
